<svg width="553" height="553" xmlns="http://www.w3.org/2000/svg" xmlns:xlink="http://www.w3.org/1999/xlink" xml:space="preserve" overflow="hidden"><g transform="translate(-693 -94)"><path d="M1214.89 554.833 989.661 163.125C981.021 147.572 958.555 147.572 949.915 163.125L724.106 554.833C715.466 570.386 726.41 589.396 744.268 589.396L969.5 589.396 1194.73 589.396C1212.59 589.396 1223.53 570.386 1214.89 554.833ZM952.219 255.292 986.781 255.292 986.781 456.906 952.219 456.906 952.219 255.292ZM969.5 537.552C953.371 537.552 940.698 524.879 940.698 508.75 940.698 492.621 953.371 479.948 969.5 479.948 985.629 479.948 998.302 492.621 998.302 508.75 998.302 524.879 985.629 537.552 969.5 537.552Z" fill="#00B050" fill-opacity="0.64"/></g></svg>