<svg width="553" height="553" xmlns="http://www.w3.org/2000/svg" xmlns:xlink="http://www.w3.org/1999/xlink" xml:space="preserve" overflow="hidden"><g transform="translate(-693 -94)"><path d="M759.948 412.741 809.234 433.289C816.146 436.169 821.78 429.59 821.803 418.582L821.866 382.925C821.866 371.923 816.29 360.661 809.366 357.781L760.08 337.262C753.168 334.382 747.528 340.961 747.511 351.969L747.447 387.626C747.43 398.599 753.024 409.861 759.948 412.741Z" fill="#00B050" fill-opacity="0.64"/><path d="M904.949 473.116 954.235 493.635C955.241 494.071 956.324 494.302 957.42 494.314 962.806 494.314 966.787 488.185 966.804 478.928L966.867 443.271C966.867 432.269 961.291 421.007 954.367 418.127L905.087 397.609C904.081 397.172 902.998 396.941 901.901 396.929 896.516 396.929 892.529 403.058 892.512 412.315L892.449 447.972C892.431 458.974 898.025 470.236 904.949 473.116ZM915.531 426.918 942.754 438.248C943.437 439.822 943.801 441.516 943.826 443.231L943.791 464.331 916.568 452.995C915.881 451.422 915.515 449.728 915.49 448.012Z" fill="#00B050" fill-opacity="0.64"/><path d="M711.779 273.558C711.121 273.813 710.489 274.13 709.89 274.503 706.68 276.639 704.751 280.238 704.751 284.094L704.521 413.594C704.512 418.253 707.311 422.459 711.612 424.25L723.311 429.118 730.765 444.095C732.002 446.581 734.095 448.536 736.658 449.602L810.311 480.27C824.741 486.29 839.153 480.616 847.039 465.869L855.023 450.927C855.588 451.93 856.068 452.978 856.458 454.061L866.429 481.221C872.61 498.047 882.984 510.541 894.891 515.501L968.55 546.193C973.163 548.113 978.489 546.841 981.735 543.042L987.265 536.573 996.966 537.506 998.302 537.552 999.661 537.42C1000.68 537.316 1001.68 537.076 1002.64 536.705L1077.53 506.256C1081.02 504.839 1083.61 501.798 1084.44 498.116L1101.85 420.823 1164.95 394.694C1165.57 394.418 1166.29 394.49 1166.85 394.884 1167.43 395.246 1167.78 395.888 1167.76 396.572L1167.76 400.673C1167.76 401.556 1167.19 402.336 1166.34 402.603 1156.02 405.962 1149.04 415.594 1149.06 426.451L1149.06 432.649C1149.08 446.494 1160.33 457.701 1174.17 457.68 1177.26 457.676 1180.33 457.099 1183.21 455.979L1188.8 453.801C1216.42 443.154 1234.6 416.551 1234.48 386.946L1234.48 373.829C1234.48 345.235 1211.29 322.058 1182.7 322.062 1176.14 322.062 1169.65 323.307 1163.56 325.73L1001.33 390.304 815.841 313.074 819.297 299.958 882.662 273.702C883.699 273.272 884.889 273.765 885.318 274.803 885.42 275.049 885.473 275.313 885.473 275.58L885.473 279.681C885.474 280.564 884.903 281.344 884.062 281.611 873.738 284.97 866.757 294.602 866.78 305.459L866.78 311.657C866.774 325.496 877.988 336.72 891.827 336.726 894.949 336.727 898.043 336.145 900.951 335.01L906.539 332.833C934.163 322.185 952.34 295.582 952.219 265.977L952.219 252.861C952.216 224.267 929.034 201.088 900.44 201.091 893.863 201.091 887.347 202.345 881.239 204.784ZM889.822 226.173C904.562 220.303 921.269 227.494 927.139 242.234 928.485 245.615 929.177 249.221 929.177 252.861L929.177 265.977C929.26 286.074 916.925 304.135 898.174 311.369L892.581 313.547C891.543 313.957 890.368 313.448 889.958 312.41 889.863 312.17 889.815 311.915 889.816 311.657L889.816 305.459C889.814 304.58 890.38 303.8 891.216 303.529 901.556 300.185 908.555 290.548 908.537 279.681L908.537 275.58C908.541 261.735 897.32 250.508 883.474 250.504 880.181 250.504 876.92 251.152 873.877 252.411L805.236 280.856C801.919 282.232 799.433 285.076 798.514 288.547L794.383 304.14 746.491 284.197ZM986.574 513.358 983.509 513.065C979.768 512.702 976.085 514.188 973.642 517.045L969.667 521.705 903.745 494.245C899.396 492.431 892.673 485.858 888.059 473.295L878.088 446.134C873.606 433.922 864.839 425.921 855.248 425.253 854.804 425.224 854.372 425.207 853.935 425.207 846.595 425.341 839.956 429.597 836.768 436.209L826.717 455.028C823.594 460.869 820.824 459.717 819.17 459.061L749.469 430.045 742.027 415.011C740.794 412.524 738.703 410.568 736.14 409.504L727.562 405.938 727.764 301.375 986.781 409.198ZM1211.44 386.946C1211.52 407.043 1199.19 425.104 1180.43 432.338L1174.84 434.516C1173.8 434.926 1172.63 434.417 1172.22 433.378 1172.12 433.139 1172.08 432.884 1172.08 432.626L1172.08 426.428C1172.07 425.549 1172.64 424.769 1173.48 424.498 1183.82 421.154 1190.82 411.517 1190.8 400.65L1190.8 396.549C1190.8 382.703 1179.58 371.476 1165.73 371.473 1162.44 371.472 1159.18 372.12 1156.14 373.38L1087.5 401.825C1084.04 403.261 1081.5 406.285 1080.68 409.936L1063.27 487.177 1009.82 508.911 1009.82 411.722 1172.08 347.141C1186.82 341.272 1203.53 348.462 1209.4 363.203 1210.75 366.583 1211.44 370.19 1211.44 373.829Z" fill="#00B050" fill-opacity="0.64"/></g></svg>